# xmcd
#
# Track frame offsets: 
#        150
#        25290
#        36717
#        47152
#        54937
#        76940
#        87777
#        96940
#        115337
#        119517
#        133242
#        153330
#        167910
#        184907
#        205892
#        223060
#        227825
#
# Disc length: 3111 seconds
#
# Revision: 9
# Processed by: cddbd v1.5.2PL0 Copyright (c) Steve Scherf et al.
# Submitted via: ExactAudioCopyFreeDBPlugin 1.0
#
DISCID=f50c2511
DTITLE=Colin Davis: London Symphony Orchestra - BERLIOZ: Les Troyens (
DTITLE=2002)
DYEAR=2002
DGENRE=Opera
TTITLE0=BERLIOZ: Les Troyens - Act 5 - Vallon sonore
TTITLE1=BERLIOZ: Les Troyens - Act 5 - Preparez tout, il faut patrir e
TTITLE1=nfin
TTITLE2=BERLIOZ: Les Troyens - Act 5 - Par Bacchus! ils sont fous avec
TTITLE2=leur Italie!
TTITLE3=BERLIOZ: Les Troyens - Act 5 - Inutiles regrets!
TTITLE4=BERLIOZ: Les Troyens - Act 5 - Ah! quand viendras l'instant de
TTITLE4=s supremes adieux
TTITLE5=BERLIOZ: Les Troyens - Act 5 - Enee!
TTITLE6=BERLIOZ: Les Troyens - Act 5 - Debout, Troyens, eveillez-vous,
TTITLE6=alerte!
TTITLE7=BERLIOZ: Les Troyens - Act 5 - Errante sur tes pas
TTITLE8=BERLIOZ: Les Troyens - Act 5 - Italie!
TTITLE9=BERLIOZ: Les Troyens - Act 5 - Va, ma soeur, l'implorer
TTITLE10=BERLIOZ: Les Troyens - Act 5 - En mer, voyez! six vaisseaux!
TTITLE11=BERLIOZ: Les Troyens - Act 5 - Ah! Ah! Je vais mourrir
TTITLE12=BERLIOZ: Les Troyens - Act 5 - Adieu, fiere cite
TTITLE13=BERLIOZ: Les Troyens - Act 5 - Dieux de l'oubli, dieux du Ten
TTITLE13=are
TTITLE14=BERLIOZ: Les Troyens - Act 5 - Pluton... semble m'etre propic
TTITLE14=e
TTITLE15=BERLIOZ: Les Troyens - Act 5 - Ah! au secours! au secours! la
TTITLE15=reine s'est frappee
TTITLE16=BERLIOZ: Les Troyens - Act 5 - Rome...Rome...immortelle!
EXTD=Les Troyens (1856-58) - Grand opéra en cinq actes\nLivret par le 
EXTD=compositeur d'après l'Énéide de Virgile\n\nBen Heppner (ténor) - 
EXTD=Énée\nMichelle DeYoung (mezzo-soprano) - Didon\nPetra Lang (mezzo
EXTD=soprano) - Cassandre/fantôme de Cassandre\nSara Mingardo (alto) 
EXTD=: Anna\nPeter Mattei (baryton) - Chorèbe\nStephen Milling (basse)
EXTD=: Narbal\nKenneth Tarver (ténor) - Iopas\nToby Spence (ténor) - 
EXTD=Hylas\nOrlin Anastassov (basse) - L'ombre d'Hector\nTigran Martir
EXTD=ossian (basse) - Panthée\nIsabelle Cals (mezzo-soprano) - Ascagne
EXTD=\nAlan Ewing (basse) - Priam\nGuang Yang (mezzo soprano) - Hécube
EXTD=\nAndrew Greenan (basse) - première sentinelle\nRoderick Earle (b
EXTD=asse) - seconde sentinelle\nBülent Bezdüz (ténor) - Hélénus\nLeig
EXTD=h Melrose (baryton) - un soldat/Mercure\nMark Stone (baryton) - u
EXTD=n chef Grec\n\nLondon Symphony Chorus (dir - Stephen Westrop]\n\n
EXTD=London Symphony Orchestra - Direction - Sir Colin Davis\n\n\nEnre
EXTD=gistré en concert au Centre Barbican les 3, 6, 7 and 9 décembre 200
EXTD=0\n YEAR: 2002
EXTT0=
EXTT1=
EXTT2=
EXTT3=
EXTT4=
EXTT5=
EXTT6=
EXTT7=
EXTT8=
EXTT9=
EXTT10=
EXTT11=
EXTT12=
EXTT13=
EXTT14=
EXTT15=
EXTT16=
PLAYORDER=
